# xmcd
#
# Track frame offsets:
#	183
#	15108
#	35608
#	47808
#	73258
#	94983
#	114483
#	135858
#	151938
#	167433
#	187033
#
# Disc length: 2747 seconds
#
# Revision: 1
# Processed by: cddbd v1.4PL0 Copyright (c) Steve Scherf et al.
# Submitted via: audiograbber 1.81.02
#
DISCID=860ab90b
DTITLE=Andy J. Forest - Blue Orleans
DYEAR=1996
DGENRE=Blues
TTITLE0=Take Me or Leave Me
TTITLE1=Soul for Sale
TTITLE2=Motel Blue Orleans
TTITLE3=12 Bar Dive
TTITLE4=Who Put The Gris Gris On Me?
TTITLE5=Daddy Says
TTITLE6=Was That Me?
TTITLE7=I Do Believe
TTITLE8=Borrowed Time
TTITLE9=She Left Me
TTITLE10=Makes Me Feel Good
EXTD=
EXTT0=
EXTT1=
EXTT2=
EXTT3=
EXTT4=
EXTT5=
EXTT6=
EXTT7=
EXTT8=
EXTT9=
EXTT10=
PLAYORDER=
